<svg xmlns="http://www.w3.org/2000/svg" width="512" height="512" aria-label="TS" viewBox="27 27 1200 1200"><rect width="1200" height="1200" x="27" y="27" fill="#060a1a" rx="180"/><path fill="#25e6f8" d="M999.2 868.22c6.37 4.37 10.37 10.14 13.18 17.28 1.67 9.35.45 16.7-4.85 24.73a32 32 0 0 1-21.54 12c-5.56.2-9.66-.98-14.73-3.26L969 918l-1.91-.97c-3.06-.05-4.4 1.66-6.5 3.7l-1.65 1.64-3.5 3.36-1.76 1.7c-2.34 2.18-4.8 4.2-7.3 6.2a266 266 0 0 0-13.6 11.88 247 247 0 0 1-11.27 9.38C919 957 919 957 916.93 959.6c-4.08 3.36-7.12 3.12-12.25 3.06l-2.85.03q-4.74.03-9.48.01l-6.79.05q-9.22.04-18.45.03-7.7 0-15.4.03-19.2.04-38.42.01-16.67 0-33.34.08-17.13.07-34.25.07-9.62-.01-19.23.04-9.03.04-18.08 0l-6.63.02c-18.8.18-18.8.18-23.93-4.84-1.52-2.09-1.52-2.09-2.83-4.18q-1.66-1.95-3.39-3.88l-1.72-2c-3.73-4.18-7.73-8.1-11.7-12.06l-2.6-2.6-2.48-2.49-2.25-2.24C649 927 649 927 647 926v-2c7.3-1.44 14.82-2.28 22 0 2.43 2.28 4.13 4.73 6.03 7.46 5.17 7.13 10.96 12.91 19.78 14.77 13.5 2.07 27.38 1.49 40.98 1.23 6.02-.1 12.04-.08 18.06-.08q15.13-.01 30.27-.25 17.47-.23 34.94-.22 18.66-.01 37.34-.17l10.7-.04q8.43-.03 16.84-.19 3.09-.04 6.16-.04c17.4.02 17.4.02 24.36-6.28q2.3-2.56 4.54-5.19 2.74-2.34 5.56-4.56c3.58-2.89 7.04-5.84 10.44-8.94 12.7-11.56 12.7-11.56 18.83-15.16 2.5-2.7 2.47-3.23 2.45-6.75q-.15-2.61-.34-5.22c-.3-8.31.18-14 6.06-20.37l1.6-1.78c10.09-9.77 23.6-10.64 35.6-4m-3.95-601.41c6.97 5.54 11.65 12.17 12.75 21.19.46 9.35-1.28 18.75-7.72 25.92-7.55 7.03-16.28 10.52-26.56 10.35-9.77-.97-16.9-6.67-23.13-13.91-2.44-3.33-3.01-6.35-3.59-10.36h-1.7q-21.64.08-43.27-.33l-2.02-.04-2.03-.03a1213 1213 0 0 0-14.9-.15l-8.69-.07-2.16-.01c-9.03-.1-17.85-.66-26.8-1.88-13.53-1.63-25.67-3.07-37.17 5.44-13.7 11.19-26.15 24.77-36.67 38.98-1.92 2.53-3.05 3.95-6.18 4.77l-2.71-.1-2.96-.05-3.05-.16-3.11-.08q-3.8-.1-7.58-.29c1.64-3.71 3.99-6.79 6.48-9.96l1.4-1.78c41.49-52.2 41.49-52.2 68.61-55.87 18.23-1.83 36.73.34 54.83 2.55a279 279 0 0 0 28.27 1.74l2.21.04 8.53.16a864 864 0 0 1 24.39.82l7.28.3.43-2.87c1.28-7 6.85-11.95 12.51-15.88 11.72-7.14 22.81-4.85 34.31 1.56M423 743c2 0 2 0 3.63 1.38C428 746 428 746 428 748l1.63.63c3.6 2.08 6.3 3.72 8.37 7.37.96 5.47.92 10.92.9 16.46l.04 4.88q.03 5.12 0 10.23 0 6.53.11 13.06.06 5.04.04 10.09 0 2.4.05 4.8c.2 12.46.2 12.46-3.09 17.41A58 58 0 0 1 429 839l-3.62 3.13-1.95 1.66c-4.12 3.75-7.99 7.75-11.9 11.7A197 197 0 0 1 398 868c-1.85 1.85-1.17 4.88-1.2 7.36l-.04 2-.08 6.61-.06 4.57-.15 12.05-.16 12.29L396 937l2.32.4c6.86 1.53 11.77 7.04 15.68 12.6 3.74 7.43 3.9 14.94 2.06 22.94-2.42 7.32-8.1 13.54-14.56 17.68-7.03 2.98-16.83 2.55-24.13.72A23 23 0 0 1 372 988l-1.88-1.5c-6.48-5.84-9.77-13.5-10.37-22.12.23-9.46 3.5-15.4 9.9-22.25 3.83-3.47 6.1-5.13 11.35-5.13l-.05-2.8q-.2-13.1-.31-26.17-.06-6.73-.17-13.46-.11-6.5-.13-13l-.08-4.94c-.28-12.9-.28-12.9 2.2-17.12A32 32 0 0 1 388 855l2.12-1.9 1.75-1.48c4.62-3.97 8.86-8.28 13.13-12.62l4.56-4.62 2-2.04C414 830 414 830 416.03 828.8A19 19 0 0 0 422 823c1.2-6.05 1.07-12.03 1-18.18q0-2.68.03-5.35.03-7.02-.02-14.04-.02-7.16.03-14.33.04-14.06-.04-28.1m46 45 7 6 2.4 1.95c3.9 3.42 6.06 5.92 6.56 11.19q.03 2.93-.05 5.87v3.25q-.02 5.3-.13 10.58l-.03 7.37q-.06 9.66-.2 19.33-.11 9.88-.16 19.75-.13 19.35-.39 38.71l2.31.4c7.9 1.78 13.18 8.67 17.67 14.95 3.51 5.7 2.67 13.25 2.02 19.65-3.01 9.06-9.12 15.18-17.25 19.88-7 2.86-13.66 3.14-20.81.56-9.2-4.1-14.3-10.13-17.94-19.44-2.2-7.41-1.32-15.07 2-22 3.9-5.3 8.06-10 14-13h3z"/><path fill="#25e6f8" d="m787 303 1 4c-1.1 1.71-1.1 1.71-2.84 3.44l-1.95 1.97-2.16 2.1-2.18 2.18-4.62 4.55q-3.54 3.46-7.03 6.96l-4.48 4.43-2.12 2.1c-6.58 6.43-6.58 6.43-10.62 8.27l-2-1zM423 743l2 1-.02 2.17c-.09 14.34.03 28.63.58 42.96.31 8.69.59 17.36.25 26.06l-.05 2.28c-.2 3.51-.55 5.27-2.81 8.02L421 827c0-3 0-3 1-4q.19-3.73.2-7.46l.04-2.36.08-7.78.06-5.37.15-14.18.16-14.46zm410-461c59.55-.21 59.55-.21 81 1v1l-21.78.57c-11.08.3-22.14.5-33.22.43v-1l-26-1z"/><path fill="#fff" d="M760.42 365.51c9.65.39 19.3.46 28.95.52 17.2.12 34.4.47 51.6.97a3132 3132 0 0 0 53.11 1.13l15.58.2c42.79.55 85.56 1.48 128.34 2.67a110 110 0 0 1-9.06 12q-5.87 6.83-11.38 13.94a390 390 0 0 1-13.22 16.02q-5.63 6.55-11.06 13.26-3.85 4.67-7.78 9.28-5.13 6.01-10.12 12.13l-2.12 2.49c-2.26 2.88-2.26 2.88-3.89 5.8-2.43 3.95-4.76 7.39-9.46 8.63-6.58.79-13.2.2-19.8-.2l-6.73-.26q-7.26-.28-14.51-.64c-7.72-.36-15.43-.58-23.16-.76l-3.96-.1-6.02-.15q-11.35-.27-22.69-.59l-2.09-.06a1273 1273 0 0 1-29.04-1.18c-16.7-.87-33.38-1.43-50.1-1.5l-3.93-.01c-33.63.03-59.46 3.65-84.16 27.85-16.88 17.29-37.94 39.2-38.25 64.6.23 9.37 4.52 17.48 10.72 24.45 8.65 7.73 18.45 10.15 29.65 10.13h2.7l8.97.01 20.27.03a12362 12362 0 0 1 33.3.07l51.11.09q17.25 0 34.49.07 9.1.02 18.22.02 8.6 0 17.19.04h6.26c21.6-.07 41.17 2.88 60.65 12.54l2.12 1.04c32.17 16.04 59.06 46.75 70.63 80.81 3.45 10.97 5.86 22.65 6.25 34.15l.16 3.55c.9 37.92-15.61 71.6-41.29 98.7a1162 1162 0 0 1-14.83 14.97l-7.9 7.9-5.02 5.02-2.38 2.4-2.2 2.18-1.93 1.92C951 853 951 853 949 853l-.73 1.76c-1.51 2.67-3.2 4.08-5.57 6.03-4.43 3.87-8.15 8-11.9 12.53-20.54 24.16-20.54 24.16-37.07 26.01-7.37.53-14.7.42-22.08.15-4.61-.13-9.21-.08-13.82-.06q-11.91.01-23.82-.25c-11.48-.24-22.96-.32-34.44-.36q-27.96-.1-55.9-.55-27.12-.41-54.25-.61l-3.38-.03-16.84-.11c-46.4-.31-92.8-.84-139.2-1.51l2.82-3.78 1.58-2.13c2.37-3.1 4.91-6.03 7.48-8.96A346 346 0 0 0 552 869c4.16-5.27 8.54-10.34 12.93-15.43q4.3-5.01 8.57-10.07 5.04-5.97 10.13-11.88a511 511 0 0 0 11.62-13.87l1.83-2.2c1.92-2.55 1.92-2.55 3.15-5.16A18 18 0 0 1 607 803c8.13-2 16.91-1.24 25.22-1.1h7.83q8.42 0 16.84.1 12.2.12 24.39.12a7572 7572 0 0 1 41.98.15l9.59.06 26.41.15 2.4.01q19.72.1 39.44.13 12.17 0 24.32.13 9.31.08 18.63.08 3.83 0 7.64.07 5.22.07 10.42.03l3.06.08c4.09-.06 6.75-.13 9.98-2.78 1.77-2 3.32-4.04 4.85-6.23q1.87-1.97 3.79-3.89l1.91-1.9 1.93-1.9 10.06-10.02c2.16-2.15 4.4-4.16 6.69-6.16 4.6-4.13 9.04-8.4 13.43-12.75l1.92-1.89c9.59-9.56 14.3-19.32 14.77-33.18-.43-11.54-5.72-22.33-13.72-30.6-12.97-11.22-26.4-11.43-42.66-11.32l-6.57-.02h-14.1q-11.18.04-22.34 0-18.67-.03-37.36 0h-4.02q-28.62.03-57.22-.02h-22.16q-6.92.02-13.84 0l-6.37.02c-12.1.05-23.34-.56-35.14-3.37l-2.46-.58c-33.4-8.58-60.62-32.65-78.18-61.69-10.71-18.63-16.55-39.24-16.55-60.68q0-3.03-.03-6.05c-.02-12.74 1.02-25.16 5.22-37.25l.9-2.66c4.9-13.75 11.88-26.75 21.1-38.09l2.45-3.06c6.46-7.93 13.55-15.16 20.87-22.3q1.96-1.92 3.88-3.9 2.81-2.75 5.79-5.34a149 149 0 0 0 19.47-20.74c34.55-44.02 64.4-51.4 118.96-49.15"/><path fill="#fff" d="M216 294h494v2c-1.48 1.46-1.48 1.46-3.52 3.15a201 201 0 0 0-12.2 11.45l-2.19 2.2-7.1 7.11-4.98 4.98-13.03 13.07-13.27 13.28L622 383l-2.62 2.63L614 391H509v399h-2c-1.42-1.52-1.42-1.52-3.08-3.6-3.78-4.43-7.94-7.58-12.7-10.9-35.38-25.41-77.15-57.76-84.78-103.2-2.69-17.6-3.1-35.4-3.03-53.17v-2.51c.08-21.34 1.02-42.61 2.25-63.9q1.03-18.54 1.5-37.1l.08-2.67.33-13.29c.9-36.25 2.44-72.45 4.43-108.66l-1.92.05q-23.14.6-46.3.88-11.2.13-22.4.43-9.75.28-19.53.33-5.16.03-10.33.21c-20.94.72-20.94.72-26.93-3.66-4.06-4.2-6.88-8.9-9.47-14.1-1.55-2.96-3.45-5.4-5.54-8l-1.9-2.48-1.87-2.41A510 510 0 0 1 253 345c-6.14-8.74-12.7-17.16-19.2-25.64q-4.48-5.89-8.9-11.84-3.76-4.94-7.69-9.78C216 296 216 296 216 294"/><path fill="#fff" d="M506 694h1l1 12h1v84h-2c-1.35-2.7-1.21-4.9-1.32-7.91l-.12-3.7-.12-4.01-.07-2.06c-.79-26.13-.1-52.2.63-78.32"/></svg>